<svg height="512pt" viewBox="0 0 512 512" width="512pt" xmlns="http://www.w3.org/2000/svg"><path d="m512 123.636719c0-68.175781-55.761719-123.636719-124.304688-123.636719-68.546874 0-124.308593 55.460938-124.308593 123.636719 0 23.394531 55.765625 42.425781 124.304687 42.425781 68.542969 0 124.308594-19.03125 124.308594-42.425781zm0 0"/><path d="m223.03125 195.960938c-20.769531-35.339844-59.320312-59.140626-103.367188-59.140626-65.984374 0-119.664062 53.390626-119.664062 119.011719 0 13.691407 20.199219 23.136719 32.242188 27.550781 22.480468 8.238282 54.34375 12.960938 87.421874 12.960938 4.175782 0 8.328126-.085938 12.449219-.238281 7.777344-48.507813 43.925781-87.707031 90.917969-100.144531zm0 0"/><path d="m387.691406 196.058594c-15.589844 0-30.777344-.917969-45.136718-2.65625l-.480469 33.933594c23.011719 22.492187 37.308593 53.796874 37.308593 88.367187 0 13.832031-6.976562 32.742187-39.230468 46.03125l-2.140625 150.046875h101.367187l-4.546875-318.621094c-14.941406 1.902344-30.820312 2.898438-47.140625 2.898438zm0 0"/><path d="m349.386719 315.703125c0-51.769531-42.355469-93.890625-94.417969-93.890625s-94.421875 42.121094-94.421875 93.890625c0 14.238281 38.777344 30.105469 94.421875 30.105469 55.640625 0 94.417969-15.867188 94.417969-30.105469zm0 0"/><path d="m131.9375 326.125c-4.058594.132812-8.148438.214844-12.273438.214844-16.265624 0-32.085937-1.015625-46.921874-2.964844l-3.800782 188.410156h101.441406l-3.046874-151.085937c-22.914063-10.042969-32.242188-23.011719-35.398438-34.574219zm0 0"/><path d="m254.96875 375.804688c-16.171875 0-31.808594-1.238282-46.148438-3.570313l-4 139.550781h100.296876l-4.003907-139.550781c-14.339843 2.332031-29.976562 3.570313-46.144531 3.570313zm0 0"/></svg>