<svg height="512" viewBox="0 0 56 58" width="512" xmlns="http://www.w3.org/2000/svg"><g id="015---Petri-Dish-" transform="translate(0 -1)"><path id="Shape" d="m29 36c0-2.33-.13-4.73-.29-6.88.48-.23 1.79-.83 3.47-1.46.24.42.44 1.19.71 1.68 1.07 1.93 2.52 3.12 4.71 3.12.7633363-.0031355 1.5182668-.1595626 2.22-.46 4.29-1.86 7.3-6.09 10.07-9.85.2547611-.3428909.2635845-.8097463.0219618-1.1620187-.2416228-.3522724-.6803319-.5121663-1.0919618-.3979813-1.57-.24-13-5.21-16.74 2.91-.3873436.759898-.6859738 1.5618374-.89 2.39-1.13.43-2.08.84-2.72 1.13-.08-.65-.16-1.26-.26-1.81 2.2680083-1.6584298 3.7226493-4.2040516 4-7 1.06-9.14-7.57-18.8-23.21-16.99-.40391817.04403089-.74104041.32808174-.85295241.71867656-.111912.39059481.02363705.81007395.34295241 1.06132344 1.32705643 1.09345687 2.2696349 2.58266083 2.69 4.25.68 2.53.23 5.15 0 7.87-.4651861 3.5593947.9096432 7.111351 3.65 9.43 3.32 2.88 7.55 3.77 11.54 1.8.3858788 3.2027657.5961932 6.4242493.63 9.65-16.73.16-27 4.13-27 7 .03363689.4480373.22496056.869658.54 1.19 4.46-3.04 14.77-5.07 26.46-5.19v2c-10.71.11-20.43 1.88-24.78 4.48 10.29 6 41.27 6 51.56 0-4.35-2.59-14.06-4.36-24.78-4.48v-2c11.68.11 22 2.14 26.46 5.18.3129068-.3177694.5040632-.7354816.54-1.18 0-2.87-10.26-6.85-27-7zm7.37-14.34c3.34-1.67 7.36-.47 11 .59-2.37 3.13-4.99 6.45-8.37 7.91-.9114179.4472666-1.9785821.4472666-2.89 0-.667809-.4195158-1.1993516-1.0240153-1.53-1.74-.09-.16-.33-.89-.56-1.36 1.9356556-.6440165 3.9601042-.9814246 6-1 .5522847 0 1-.4477153 1-1s-.4477153-1-1-1c-2.219616.0178762-4.4228259.3822662-6.53 1.08.4501781-1.4869133 1.4714439-2.7347275 2.84-3.47zm-8.71 1.34c-.544594-1.7551163-1.2129362-3.4694139-2-5.13.6037817-.9772942 1.5534775-1.6913512 2.66-2 .5163862-.1960611.7760611-.7736138.58-1.29s-.7736138-.7760611-1.29-.58c-1.1425969.3887073-2.1726031 1.0513446-3 1.93-.42-.7333333-.87-1.4433333-1.35-2.13.4057975-1.0684368 1.2342621-1.9222257 2.29-2.36.3411886-.1107523.5973743-.3951137.6720543-.7459679.0746799-.3508542-.0434914-.71489811-.31-.95499998-.2665087-.24010186-.6408657-.31978445-.9820543-.20903212-1.262309.45560425-2.3242352 1.3405427-3 2.5-1.1157779-1.3882829-2.3540944-2.67345468-3.7-3.84-.2679221-.24731376-.649216-.32920064-.9950565-.21369885s-.6014039.41008255-.6669397.7687626c-.0655358.35868006.069345.72460036.3519962.95493625 1.0744314.9226905 2.0773095 1.9255686 3 3-1.6881778-.1797434-3.3575421.4775455-4.47 1.76-.2357953.2768808-.305965.6585246-.1840768 1.0011697s.4173165.5942357.775.66.7232815-.0642889.9590768-.3411697c1.29-1.63 4.15-.86 4.64-.71.39.57.77 1.16 1.12 1.77-1.83 0-4.55.28-6.3 2.2-.37163.4063531-.3448073 1.0366868.06 1.41.4063531.37163 1.0366868.3448073 1.41-.06 1.65-1.79 4.79-1.61 5.94-1.47.8572767 1.7314692 1.5697107 3.5309504 2.13 5.38-3.41 2-7 1.17-9.82-1.26-2.2567341-1.9023151-3.3877188-4.8240257-3-7.75.31-3.69 1.17-8.29-1.86-12.29 13.43-.59 20.46 8.14 18.68 16.14-.3808431 1.4898756-1.1952142 2.83324-2.34 3.86z"/><path id="Shape" d="m56 52v-5.6c-9.43 7.44-46.56 7.44-56 0v2.27c.63.71 4 3.7 17.12 5.34.5162107.0728282.8898675.5300087.858488 1.0503862-.0313796.5203776-.4572663.9293444-.978488.9396138h-.12c-9.88-1.25-14.65-3.27-16.88-4.75v.75c0 2.92 10.65 7 28 7s28-4.08 28-7zm-35 4c-.5522847 0-1-.4477153-1-1s.4477153-1 1-1 1 .4477153 1 1-.4477153 1-1 1z"/></g></svg>