<?xml version="1.0" encoding="iso-8859-1"?>
<!-- Generator: Adobe Illustrator 21.0.0, SVG Export Plug-In . SVG Version: 6.00 Build 0)  -->
<svg xmlns="http://www.w3.org/2000/svg" xmlns:xlink="http://www.w3.org/1999/xlink" version="1.1" id="Capa_1" x="0px" y="0px" viewBox="0 0 512 512" style="enable-background:new 0 0 512 512;" xml:space="preserve" width="512" height="512">
<g>
	<path d="M497,392c-8.291,0-15,6.709-15,15c0,8.276-6.724,15-15,15s-15-6.724-15-15c0-41.353-35.647-75-77-75h-16.516   c0.716-4.942,1.516-9.864,1.516-15c0-11.536-2.325-22.443-5.779-32.834l14.802-7.405c7.412-3.706,10.415-12.715,6.709-20.127   c-3.735-7.412-12.715-10.4-20.127-6.709l-14.515,7.262c-7.139-10.241-16.036-19.138-26.277-26.277l7.262-14.515   c3.706-7.412,0.703-16.421-6.709-20.127c-7.397-3.677-16.421-0.703-20.127,6.709l-7.405,14.802   C277.443,214.325,266.536,212,255,212c-5.786,0-10.662-3.389-13.165-8.194l21.486-14.321c6.885-4.6,8.76-13.901,4.16-20.801   c-4.585-6.885-13.916-8.76-20.801-4.16l-6.68,4.451V136c0-5.136-0.8-10.058-1.516-15h12.722c8.291,0,15-6.709,15-15   s-6.709-15-15-15h-21.738c-6.092-12.724-14.641-23.912-25.074-33.182l9.694-9.694c5.859-5.859,5.859-15.352,0-21.211   s-15.352-5.859-21.211,0L178.87,40.919c-9.014-4.178-18.702-6.929-28.87-8.403V15c0-8.291-6.709-15-15-15s-15,6.709-15,15v17.516   c-13.46,1.952-25.994,6.42-37.304,12.986L74.18,32.729c-4.6-6.899-13.916-8.774-20.801-4.16c-6.899,4.6-8.76,13.901-4.16,20.801   l9.752,14.628C51.462,71.924,45.299,81.043,40.532,91H18.794c-8.291,0-15,6.709-15,15s6.709,15,15,15h12.722   C30.8,125.942,30,130.864,30,136v46H15c-8.291,0-15,6.709-15,15s6.709,15,15,15h15.76c1.058,15.941,3.723,31.423,7.943,46.295   l-14.606,4.872c-7.866,2.622-12.1,11.118-9.478,18.97c2.653,7.961,11.243,12.076,18.97,9.478l15.119-5.045   c5.035,11.552,11.047,22.568,17.869,33.019l-12.319,8.207c-6.885,4.585-8.76,13.901-4.16,20.801   c4.521,6.793,13.786,8.809,20.801,4.16c4.343-2.996,9.677-6.167,13.55-9.408c8.734,10.162,18.272,19.603,28.663,28.074   l-9.298,10.485c-5.493,6.196-4.937,15.674,1.274,21.167c6.216,5.515,15.709,4.913,21.167-1.274l11.591-13.072   c8.89,5.451,18.085,10.441,27.729,14.636l-4.178,16.6c-2.021,8.027,2.856,16.187,10.884,18.208   c8.046,2.01,16.185-2.845,18.208-10.884l3.505-13.918c13.612,3.843,27.706,6.469,42.226,7.678   c5.321,41.409,33.594,76.705,74.035,90.176c7.912,2.637,16.366-1.666,18.97-9.478c2.622-7.866-1.626-16.362-9.478-18.97   c-28.218-9.415-48.354-33.411-53.353-61.928c17.968-1.974,34.638-8.11,48.726-18.008l19.378,6.46   C349.746,414.397,360,428.606,360,444.69c0,37.119,32.19,67.31,69.31,67.31H467c8.291,0,15-6.709,15-15s-6.709-15-15-15h-37.69   c-20.566,0-39.31-16.743-39.31-37.31c0-29.019-18.486-54.668-46.011-63.838l-4.887-1.63c3.994-5.381,7.445-11.122,10.366-17.223   H375c24.814,0,47,20.186,47,45s20.186,45,45,45s45-20.186,45-45C512,398.709,505.291,392,497,392z M90,136   c0-24.814,20.186-45,45-45s45,20.186,45,45s-20.186,46-45,46S90,160.814,90,136z M135,242c-8.284,0-15-6.716-15-15   c0-8.286,6.716-15,15-15s15,6.714,15,15C150,235.284,143.284,242,135,242z M165,332c-8.284,0-15-6.716-15-15   c0-8.286,6.716-15,15-15s15,6.714,15,15C180,325.284,173.284,332,165,332z M195,272c-8.284,0-15-6.716-15-15   c0-8.286,6.716-15,15-15s15,6.714,15,15C210,265.284,203.284,272,195,272z M255,362c-24.814,0-45-20.186-45-45s20.186-45,45-45   s45,20.186,45,45S279.815,362,255,362z"/>
	<path d="M150,136c0-8.276-6.724-15-15-15s-15,6.724-15,15s6.724,15,15,15S150,144.276,150,136z"/>
	<path d="M255,302c-8.276,0-15,6.724-15,15s6.724,15,15,15s15-6.724,15-15S263.277,302,255,302z"/>
</g>















</svg>
