<svg height="511pt" viewBox="0 0 511.99982 511" width="511pt" xmlns="http://www.w3.org/2000/svg"><path d="m334.976562 119.855469c-18.425781 54.226562-71.863281 92.777343-129.480468 92.777343-3.207032.132813-20.882813-1.742187-41.214844 4.40625-36.792969 11.078126-65.160156 41.972657-72.210938 78.695313-6.234374 32.328125 1.535157 63.695313 21.847657 88.296875 24.621093 29.753906 63.417969 43.703125 102.554687 36.089844 49.476563-9.527344 85.539063-56.382813 83.21875-107.320313-2.664062-59.421875 36.910156-116.339843 92.875-135.367187 23.894532-8.164063 38.050782-37.308594 23.460938-65.332032-15.71875-30.132812-68.632813-28.761718-81.050782 7.753907zm-140.09375 257.398437c-33.0625 0-59.949218-26.886718-59.949218-59.949218s26.886718-59.945313 59.949218-59.945313 59.949219 26.882813 59.949219 59.945313-26.886719 59.949218-59.949219 59.949218zm196.832032-226.882812h-29.972656v-29.976563h29.972656zm0 0"/><path d="m421.542969 262.539062c74.402343-25.324218 115.136719-113.433593 74.234375-191.960937-31.023438-59.632813-105.496094-85.726563-168.734375-60.488281-36.5625 14.605468-64.691407 44.050781-77.203125 80.816406-6.234375 18.339844-26.117188 31.234375-45.40625 30.679688-21.707032-.980469-43.628906 1.8125-65.070313 8.265624-68.449219 20.609376-122.289062 79.707032-135.609375 148.890626-12.597656 65.539062 6.835938 129.816406 53.363282 176.328124 47.035156 47.054688 111.53125 65.820313 176.34375 53.363282 76.976562-14.820313 149.710937-79.34375 156.757812-188.769532 2.136719-33.355468 5.375-48.285156 31.324219-57.125zm-90.90625 47.832032c3.019531 67.039062-45.691407 127.09375-108.5 139.199218-51.550781 9.890626-100.402344-9.027343-131.3125-46.453124-26.125-31.617188-36.136719-71.773438-28.203125-113.0625 9.160156-47.535157 45.664062-87.460938 93.023437-101.71875 26.46875-7.980469 46.339844-6.53125 51.1875-6.757813 44.449219 0 85.480469-29.304687 99.765625-71.367187 20.25-59.542969 107.824219-66.191407 136.023438-11.941407 23.386718 44.929688.242187 93.6875-40.394532 107.527344-43.4375 14.78125-73.667968 58.398437-71.589843 104.574219zm0 0"/><path d="m194.882812 287.332031c-16.523437 0-29.972656 13.449219-29.972656 29.972657 0 16.523437 13.449219 29.976562 29.972656 29.976562 16.523438 0 29.972657-13.453125 29.972657-29.976562 0-16.523438-13.449219-29.972657-29.972657-29.972657zm0 0"/><path d="m494.035156 433.542969c23.410156-23.378907 23.460938-61.308594 0-84.769531-3.996094-4.039063-13.011718-10.097657-28.117187-6.101563-24.058594 6.441406-56.316407 38.695313-62.757813 62.757813-4.054687 15.121093 2.09375 24.105468 6.101563 28.117187 23.414062 23.4375 61.375 23.425781 84.773437-.003906zm0 0"/><path d="m78.566406 102.261719c7.394532 7.394531 17.671875 8.910156 28.117188 6.101562 24.058594-6.4375 56.316406-38.695312 62.757812-62.753906 4.054688-15.105469-2.078125-24.089844-6.105468-28.117187-22.65625-22.65625-62.140626-22.65625-84.769532 0-23.441406 23.410156-23.429687 61.371093 0 84.769531zm0 0"/></svg>